<mxfile host="app.diagrams.net" modified="2023-09-06T05:36:13.566Z" agent="Mozilla/5.0 (Windows NT 10.0; Win64; x64) AppleWebKit/537.36 (KHTML, like Gecko) Chrome/116.0.0.0 Safari/537.36" version="21.7.2" etag="c-3Lh42RHGFPHJN9NIeR" type="github">
  <diagram name="第 1 页" id="rv6KNAfGteQ34PJ3Uz4X">
    <mxGraphModel>
      <root>
        <mxCell id="0" />
        <mxCell id="1" parent="0" />
      </root>
    </mxGraphModel>
  </diagram>
</mxfile>
